{
  "accessors": [
    {
      "bufferView": 2,
      "componentType": 5126,
      "count": 65532,
      "max": [
        6.239116668701172,
        3.6722965240478516,
        14.262168884277344
      ],
      "min": [
        -7.1152729988098145,
        -9.334722518920898,
        0.1674921065568924
      ],
      "type": "VEC3"
    },
    {
      "bufferView": 2,
      "byteOffset": 786384,
      "componentType": 5126,
      "count": 65532,
      "max": [
        0.9998690485954285,
        0.9999600052833557,
        0.9999997615814209
      ],
      "min": [
        -0.9999249577522278,
        -0.9999988079071045,
        -1.0
      ],
      "type": "VEC3"
    },
    {
      "bufferView": 1,
      "componentType": 5126,
      "count": 65532,
      "max": [
        0.9997559785842896,
        0.4274899959564209
      ],
      "min": [
        0.00024399999529123306,
        0.00024399999529123306
      ],
      "type": "VEC2"
    },
    {
      "bufferView": 0,
      "componentType": 5125,
      "count": 157113,
      "type": "SCALAR"
    },
    {
      "bufferView": 2,
      "byteOffset": 1572768,
      "componentType": 5126,
      "count": 13643,
      "max": [
        6.239116668701172,
        3.697237730026245,
        14.126049995422363
      ],
      "min": [
        -6.539212703704834,
        -9.292445182800293,
        0.16319361329078674
      ],
      "type": "VEC3"
    },
    {
      "bufferView": 2,
      "byteOffset": 1736484,
      "componentType": 5126,
      "count": 13643,
      "max": [
        0.9937960505485535,
        0.9982807040214539,
        0.9999995231628418
      ],
      "min": [
        -0.9982196688652039,
        -0.9955870509147644,
        -0.9999995231628418
      ],
      "type": "VEC3"
    },
    {
      "bufferView": 1,
      "byteOffset": 524256,
      "componentType": 5126,
      "count": 13643,
      "max": [
        0.9997559785842896,
        0.388265997171402
      ],
      "min": [
        0.00024399999529123306,
        0.00024399999529123306
      ],
      "type": "VEC2"
    },
    {
      "bufferView": 0,
      "byteOffset": 628452,
      "componentType": 5125,
      "count": 19569,
      "type": "SCALAR"
    }
  ],
  "asset": {
    "extras": {
      "author": "Thimeo (https://sketchfab.com/Thimeo)",
      "license": "CC-BY-4.0 (http://creativecommons.org/licenses/by/4.0/)",
      "source": "https://sketchfab.com/3d-models/kyouko-kirigiri-figure-from-danganronpa-84687eb3bbe74aa891b3327e42f06ab6",
      "title": "Kyouko Kirigiri figure from Danganronpa"
    },
    "generator": "Sketchfab-12.66.0",
    "version": "2.0"
  },
  "bufferViews": [
    {
      "buffer": 0,
      "byteLength": 706728,
      "name": "floatBufferViews",
      "target": 34963
    },
    {
      "buffer": 0,
      "byteLength": 633400,
      "byteOffset": 706728,
      "byteStride": 8,
      "name": "floatBufferViews",
      "target": 34962
    },
    {
      "buffer": 0,
      "byteLength": 1900200,
      "byteOffset": 1340128,
      "byteStride": 12,
      "name": "floatBufferViews",
      "target": 34962
    }
  ],
  "buffers": [
    {
      "byteLength": 3240328,
      "uri": "scene.bin"
    }
  ],
  "extensionsUsed": [
    "KHR_materials_unlit"
  ],
  "images": [
    {
      "uri": "textures/model_Material_u1_v1_baseColor.jpeg"
    }
  ],
  "materials": [
    {
      "doubleSided": true,
      "extensions": {
        "KHR_materials_unlit": {}
      },
      "name": "model_Material_u1_v1",
      "pbrMetallicRoughness": {
        "baseColorTexture": {
          "index": 0
        },
        "metallicFactor": 0.0
      }
    }
  ],
  "meshes": [
    {
      "name": "Object_0",
      "primitives": [
        {
          "attributes": {
            "NORMAL": 1,
            "POSITION": 0,
            "TEXCOORD_0": 2
          },
          "indices": 3,
          "material": 0,
          "mode": 4
        }
      ]
    },
    {
      "name": "Object_1",
      "primitives": [
        {
          "attributes": {
            "NORMAL": 5,
            "POSITION": 4,
            "TEXCOORD_0": 6
          },
          "indices": 7,
          "material": 0,
          "mode": 4
        }
      ]
    }
  ],
  "nodes": [
    {
      "children": [
        1
      ],
      "matrix": [
        0.9669800996780396,
        -0.0065362527966498765,
        -0.254768043756485,
        0.0,
        -0.2512747049331665,
        -0.19135694205760934,
        -0.9488116502761841,
        0.0,
        -0.04254996031522751,
        0.9814987778663635,
        -0.18668076395988442,
        0.0,
        -0.6508385539054871,
        -0.40880724787712114,
        0.8211218714714049,
        1.0
      ],
      "name": "Sketchfab_model"
    },
    {
      "children": [
        2,
        3
      ],
      "name": "model.obj.cleaner.materialmerger.gles"
    },
    {
      "mesh": 0,
      "name": "Object_2"
    },
    {
      "mesh": 1,
      "name": "Object_3"
    }
  ],
  "samplers": [
    {
      "magFilter": 9729,
      "minFilter": 9987,
      "wrapS": 10497,
      "wrapT": 10497
    }
  ],
  "scene": 0,
  "scenes": [
    {
      "name": "Sketchfab_Scene",
      "nodes": [
        0
      ]
    }
  ],
  "textures": [
    {
      "sampler": 0,
      "source": 0
    }
  ]
}
