{
  "accessors": [
    {
      "bufferView": 2,
      "componentType": 5126,
      "count": 860,
      "max": [
        0.6576120257377625,
        0.026388999074697495,
        0.8756939768791199
      ],
      "min": [
        -0.645796000957489,
        -0.005439000204205513,
        0.002623999956995249
      ],
      "type": "VEC3"
    },
    {
      "bufferView": 2,
      "byteOffset": 10320,
      "componentType": 5126,
      "count": 860,
      "max": [
        1.0,
        1.0,
        0.9985687136650085
      ],
      "min": [
        -1.0,
        -1.0,
        -0.999823272228241
      ],
      "type": "VEC3"
    },
    {
      "bufferView": 3,
      "componentType": 5126,
      "count": 860,
      "max": [
        1.0,
        0.9999655485153198,
        0.9999901652336121,
        1.0
      ],
      "min": [
        -1.0,
        -1.0,
        -0.9999910593032837,
        1.0
      ],
      "type": "VEC4"
    },
    {
      "bufferView": 1,
      "componentType": 5126,
      "count": 860,
      "max": [
        0.9543009996414185,
        0.9477919936180115
      ],
      "min": [
        0.06518399715423584,
        0.047590017318725586
      ],
      "type": "VEC2"
    },
    {
      "bufferView": 1,
      "byteOffset": 6880,
      "componentType": 5126,
      "count": 860,
      "max": [
        0.9543009996414185,
        0.9477919936180115
      ],
      "min": [
        0.06518399715423584,
        0.047590017318725586
      ],
      "type": "VEC2"
    },
    {
      "bufferView": 1,
      "byteOffset": 13760,
      "componentType": 5126,
      "count": 860,
      "max": [
        0.9543009996414185,
        0.9477919936180115
      ],
      "min": [
        0.06518399715423584,
        0.047590017318725586
      ],
      "type": "VEC2"
    },
    {
      "bufferView": 1,
      "byteOffset": 20640,
      "componentType": 5126,
      "count": 860,
      "max": [
        0.9543009996414185,
        0.9477919936180115
      ],
      "min": [
        0.06518399715423584,
        0.047590017318725586
      ],
      "type": "VEC2"
    },
    {
      "bufferView": 0,
      "componentType": 5125,
      "count": 4026,
      "type": "SCALAR"
    },
    {
      "bufferView": 2,
      "byteOffset": 20640,
      "componentType": 5126,
      "count": 144,
      "max": [
        0.6126893758773804,
        0.0,
        0.5
      ],
      "min": [
        -0.6126893758773804,
        0.0,
        -0.5
      ],
      "type": "VEC3"
    },
    {
      "bufferView": 2,
      "byteOffset": 22368,
      "componentType": 5126,
      "count": 144,
      "max": [
        0.0,
        1.0,
        -0.0
      ],
      "min": [
        0.0,
        1.0,
        -0.0
      ],
      "type": "VEC3"
    },
    {
      "bufferView": 1,
      "byteOffset": 27520,
      "componentType": 5126,
      "count": 144,
      "max": [
        1.0,
        1.0
      ],
      "min": [
        0.0,
        0.0
      ],
      "type": "VEC2"
    },
    {
      "bufferView": 0,
      "byteOffset": 16104,
      "componentType": 5125,
      "count": 726,
      "type": "SCALAR"
    }
  ],
  "asset": {
    "extras": {
      "author": "wdeshaun64 (https://sketchfab.com/wdeshaun64)",
      "license": "CC-BY-4.0 (http://creativecommons.org/licenses/by/4.0/)",
      "source": "https://sketchfab.com/3d-models/painting1-8b4890fe3bb1495ca8e2065a0d617571",
      "title": "Painting1"
    },
    "generator": "Sketchfab-16.0.0",
    "version": "2.0"
  },
  "bufferViews": [
    {
      "buffer": 0,
      "byteLength": 19008,
      "name": "floatBufferViews",
      "target": 34963
    },
    {
      "buffer": 0,
      "byteLength": 28672,
      "byteOffset": 19008,
      "byteStride": 8,
      "name": "floatBufferViews",
      "target": 34962
    },
    {
      "buffer": 0,
      "byteLength": 24096,
      "byteOffset": 47680,
      "byteStride": 12,
      "name": "floatBufferViews",
      "target": 34962
    },
    {
      "buffer": 0,
      "byteLength": 13760,
      "byteOffset": 71776,
      "byteStride": 16,
      "name": "floatBufferViews",
      "target": 34962
    }
  ],
  "buffers": [
    {
      "byteLength": 85536,
      "uri": "scene.bin"
    }
  ],
  "extensionsUsed": [
    "KHR_materials_specular"
  ],
  "images": [
    {
      "uri": "textures/SMS_Canvas_Material_baseColor.png"
    },
    {
      "uri": "textures/SMS_Canvas_Material_metallicRoughness.png"
    },
    {
      "uri": "textures/SMS_Canvas_Material_normal.png"
    },
    {
      "uri": "textures/SMS_Canvas_Material_specularf0.png"
    },
    {
      "uri": "textures/RejoiceHeWillProvide_2023_AcrlicPaintOilPastel_24x30in_baseColor.png"
    }
  ],
  "materials": [
    {
      "doubleSided": true,
      "extensions": {
        "KHR_materials_specular": {
          "specularColorFactor": [
            1.0,
            1.0,
            1.0
          ],
          "specularFactor": 1.0,
          "specularTexture": {
            "index": 3
          }
        }
      },
      "name": "SMS_Canvas_Material",
      "normalTexture": {
        "index": 2
      },
      "pbrMetallicRoughness": {
        "baseColorTexture": {
          "index": 0
        },
        "metallicRoughnessTexture": {
          "index": 1
        }
      }
    },
    {
      "doubleSided": true,
      "name": "RejoiceHeWillProvide_2023_AcrlicPaintOilPastel_24x30in",
      "pbrMetallicRoughness": {
        "baseColorTexture": {
          "index": 4
        },
        "metallicFactor": 0.0,
        "roughnessFactor": 0.5
      }
    }
  ],
  "meshes": [
    {
      "name": "Object_0",
      "primitives": [
        {
          "attributes": {
            "NORMAL": 1,
            "POSITION": 0,
            "TANGENT": 2,
            "TEXCOORD_0": 3,
            "TEXCOORD_1": 4,
            "TEXCOORD_2": 5,
            "TEXCOORD_3": 6
          },
          "indices": 7,
          "material": 0,
          "mode": 4
        }
      ]
    },
    {
      "name": "Object_1",
      "primitives": [
        {
          "attributes": {
            "NORMAL": 9,
            "POSITION": 8,
            "TEXCOORD_0": 10
          },
          "indices": 11,
          "material": 1,
          "mode": 4
        }
      ]
    }
  ],
  "nodes": [
    {
      "children": [
        1
      ],
      "matrix": [
        1.0,
        0.0,
        0.0,
        0.0,
        0.0,
        2.220446049250313e-16,
        -1.0,
        0.0,
        0.0,
        1.0,
        2.220446049250313e-16,
        0.0,
        0.0,
        0.0,
        0.0,
        1.0
      ],
      "name": "Sketchfab_model"
    },
    {
      "children": [
        2
      ],
      "name": "root"
    },
    {
      "children": [
        3,
        7
      ],
      "matrix": [
        1.0,
        0.0,
        0.0,
        0.0,
        0.0,
        2.220446049250313e-16,
        1.0,
        0.0,
        0.0,
        -1.0,
        2.220446049250313e-16,
        0.0,
        0.0,
        0.0,
        0.0,
        1.0
      ],
      "name": "GLTF_SceneRootNode"
    },
    {
      "children": [
        4
      ],
      "matrix": [
        1.0,
        0.0,
        -0.0,
        0.0,
        -0.0,
        -3.371747936409264e-07,
        -0.999999999999943,
        0.0,
        0.0,
        0.999999999999943,
        -3.371747936409264e-07,
        0.0,
        0.0,
        0.0,
        0.0,
        1.0
      ],
      "name": "Sketchfab_model_2"
    },
    {
      "children": [
        5
      ],
      "name": "SMS Canvas.obj.cleaner.materialmerger.gles_1"
    },
    {
      "children": [
        6
      ],
      "matrix": [
        1.0,
        0.0,
        0.0,
        0.0,
        0.0,
        1.0,
        0.0,
        0.0,
        0.0,
        0.0,
        1.156266689300537,
        0.0,
        0.0,
        0.0,
        0.0,
        1.0
      ],
      "name": "Object_2_0"
    },
    {
      "mesh": 0,
      "name": "Object_6"
    },
    {
      "children": [
        8
      ],
      "matrix": [
        1.0583428304104752,
        -1.1374329730159403e-11,
        -0.004404042784168379,
        0.0,
        0.0041524960494468705,
        8.41169968742372e-08,
        0.9978932171227272,
        0.0,
        3.4156404610518106e-10,
        -1.0045447349548304,
        8.467626245779815e-08,
        0.0,
        0.007257695309817791,
        0.5086639523506165,
        0.01775265671312809,
        1.0
      ],
      "name": "Rejoice!HeWillProvide_2023_AcrlicPaint,OilPastel_24x30in_3"
    },
    {
      "mesh": 1,
      "name": "Object_8"
    }
  ],
  "samplers": [
    {
      "magFilter": 9729,
      "minFilter": 9987,
      "wrapS": 10497,
      "wrapT": 10497
    },
    {
      "magFilter": 9729,
      "minFilter": 9987,
      "wrapS": 33071,
      "wrapT": 33071
    }
  ],
  "scene": 0,
  "scenes": [
    {
      "name": "Sketchfab_Scene",
      "nodes": [
        0
      ]
    }
  ],
  "textures": [
    {
      "sampler": 0,
      "source": 0
    },
    {
      "sampler": 0,
      "source": 1
    },
    {
      "sampler": 0,
      "source": 2
    },
    {
      "sampler": 0,
      "source": 3
    },
    {
      "sampler": 1,
      "source": 4
    }
  ]
}
